<?xml version="1.0" encoding="UTF-8" standalone="no"?>
<!DOCTYPE svg PUBLIC "-//W3C//DTD SVG 1.1//EN" "http://www.w3.org/Graphics/SVG/1.1/DTD/svg11.dtd">
<svg version="1.1" xmlns="http://www.w3.org/2000/svg" xmlns:xlink="http://www.w3.org/1999/xlink" preserveAspectRatio="xMidYMid meet" viewBox="30.00674109122761 23.167242488082202 239.98651781754475 253.66551502383555" width="239.99" height="253.67"><defs><path d="M150 73.47C186.38 143.55 206.58 182.49 210.63 190.28C213.73 196.26 221.78 201.15 228.51 201.15C228.51 201.15 228.51 201.15 228.51 201.15C245.15 201.15 254.39 201.15 256.24 201.15C262.97 201.15 265.95 196.26 262.84 190.28C262.84 190.28 262.84 190.28 262.84 190.28L192.51 54.77L176.11 23.17L150 73.47Z" id="cepWRtsa1"></path><linearGradient id="gradientao7G2bq68" gradientUnits="userSpaceOnUse" x1="171.65" y1="45.34" x2="237.53" y2="209.14"><stop style="stop-color: #ffffff;stop-opacity: 1" offset="0%"></stop><stop style="stop-color: #e9e9ea;stop-opacity: 1" offset="100%"></stop></linearGradient><path d="M123.94 123.72L150 173.94L176.06 123.72L150 73.5L123.94 123.72Z" id="b8kKQYxg"></path><linearGradient id="gradienta4FeQf5zr" gradientUnits="userSpaceOnUse" x1="148.94" y1="138.78" x2="153.51" y2="73.81"><stop style="stop-color: #ffffff;stop-opacity: 1" offset="0%"></stop><stop style="stop-color: #e9e9ea;stop-opacity: 1" offset="100%"></stop></linearGradient><path d="M37.09 190.28C33.99 196.26 36.96 201.15 43.7 201.15C43.7 201.15 43.7 201.15 43.7 201.15C60.33 201.15 69.57 201.15 71.42 201.15C78.16 201.15 86.21 196.26 89.31 190.28C89.31 190.28 89.31 190.28 89.31 190.28L123.94 123.55L97.83 73.25C65.44 135.66 45.19 174.67 37.09 190.28Z" id="fa1pvReHH"></path><linearGradient id="gradientb1RJDuCkZ" gradientUnits="userSpaceOnUse" x1="56.5" y1="197.48" x2="116.9" y2="90.42"><stop style="stop-color: #ffffff;stop-opacity: 1" offset="0%"></stop><stop style="stop-color: #e9e9ea;stop-opacity: 1" offset="100%"></stop></linearGradient><path d="M97.88 73.25L107.47 54.77C116.31 37.74 121.22 28.28 122.2 26.38C118.95 24.4 115.24 23.17 111.86 23.17C109.09 23.17 86.9 23.17 84.13 23.17C77.4 23.17 74.42 28.05 77.53 34.04C80.24 39.27 87.02 52.34 97.88 73.25Z" id="g1cSzc8M9"></path><path d="M260.58 251.48C258.91 250.6 257.99 250.11 257.8 250.01C253.38 247.58 252.47 245.99 252.47 244.57C252.47 244.46 252.47 243.6 252.47 243.49C252.47 242.13 255.08 241.06 257.46 241.06C259.39 241.06 262.79 242.02 267.55 243.89C267.55 243.07 267.55 236.54 267.55 235.73C263.58 234.53 260.3 233.97 257.18 233.97C250.38 233.97 244.31 238.56 244.31 245.19C244.31 250.18 246.29 254.09 253.78 257.95C254.08 258.1 256.53 259.33 256.84 259.48C258.43 260.33 259.39 261.3 260.18 262.09C260.21 262.13 260.44 262.4 260.47 262.43C261.6 263.51 261.77 263.68 261.77 265.04C261.77 267.76 259.39 269.18 256.21 269.18C253.55 269.18 249.58 267.7 244.48 265.27C244.48 266.23 244.48 273.94 244.48 274.91C249.24 276.21 252.87 276.83 255.37 276.83C263.98 276.83 269.99 272.19 269.99 264.7C269.99 259.26 268.01 255.4 260.58 251.48" id="b19EqdOI3i"></path><path d="M30.01 239.17L30.01 275.87L38.51 275.87L38.51 234.93C35.95 234.93 34.53 234.93 34.25 234.93C31.9 234.93 30.01 236.83 30.01 239.17" id="b1grEfMpFA"></path><path d="M160.04 234.93C157.7 234.93 155.8 236.83 155.8 239.17C155.8 241.62 155.8 253.85 155.8 275.87L164.3 275.87L164.3 234.93C162.03 234.93 160.61 234.93 160.04 234.93Z" id="c5XKpymcXN"></path><path d="M80.37 237.5L80.35 237.56L71.58 262.37L62.17 234.93C58.46 234.93 56.39 234.93 55.98 234.93C53.64 234.93 51.74 236.83 51.74 239.17C51.74 241.62 51.74 253.85 51.74 275.86L59.45 275.86L59.45 249.39L67.39 273.26L74.53 273.26L82.7 249.27L82.7 275.86L90.87 275.86L90.87 234.93C86.9 234.93 84.7 234.93 84.26 234.93C82.52 234.93 81.02 235.99 80.37 237.5" id="h1vYqrwE8L"></path><path d="M132.37 237.37L132.21 237.83L123.54 262.37L114.13 234.93C110.41 234.93 108.34 234.93 107.93 234.93C105.59 234.93 103.69 236.83 103.69 239.17C103.69 241.62 103.69 253.85 103.69 275.87L111.4 275.87L111.4 249.39L119.34 273.26L126.49 273.26L134.65 249.27L134.65 275.87L142.82 275.87L142.82 234.93C138.83 234.93 136.62 234.93 136.18 234.93C134.48 234.93 133.05 235.94 132.37 237.37" id="hiD8Ng2TF"></path><path d="M227.54 234.93C225.2 234.93 223.3 236.83 223.3 239.17C223.3 241.62 223.3 253.85 223.3 275.87L231.8 275.87L231.8 234.93C229.53 234.93 228.11 234.93 227.54 234.93Z" id="e5ZIsH8WiM"></path><path d="M176.57 239.17L176.57 242.07L177.76 242.07L183.88 242.07L189.79 242.07L189.79 275.87L198.41 275.87L198.41 242.07L211.68 242.07L211.68 234.93C193.16 234.93 182.87 234.93 180.82 234.93C178.47 234.93 176.57 236.83 176.57 239.17" id="bVn8d9cFL"></path></defs><g><g><g><use xlink:href="#cepWRtsa1" opacity="1" fill="url(#gradientao7G2bq68)"></use><g><use xlink:href="#cepWRtsa1" opacity="1" fill-opacity="0" stroke="#000000" stroke-width="1" stroke-opacity="0"></use></g></g><g><use xlink:href="#b8kKQYxg" opacity="1" fill="url(#gradienta4FeQf5zr)"></use><g><use xlink:href="#b8kKQYxg" opacity="1" fill-opacity="0" stroke="#000000" stroke-width="1" stroke-opacity="0"></use></g></g><g><use xlink:href="#fa1pvReHH" opacity="1" fill="url(#gradientb1RJDuCkZ)"></use><g><use xlink:href="#fa1pvReHH" opacity="1" fill-opacity="0" stroke="#000000" stroke-width="1" stroke-opacity="0"></use></g></g><g><use xlink:href="#g1cSzc8M9" opacity="1" fill="#ffffff" fill-opacity="1"></use><g><use xlink:href="#g1cSzc8M9" opacity="1" fill-opacity="0" stroke="#000000" stroke-width="1" stroke-opacity="0"></use></g></g><g><use xlink:href="#b19EqdOI3i" opacity="1" fill="#ffffff" fill-opacity="1"></use><g><use xlink:href="#b19EqdOI3i" opacity="1" fill-opacity="0" stroke="#000000" stroke-width="1" stroke-opacity="0"></use></g></g><g><use xlink:href="#b1grEfMpFA" opacity="1" fill="#ffffff" fill-opacity="1"></use><g><use xlink:href="#b1grEfMpFA" opacity="1" fill-opacity="0" stroke="#000000" stroke-width="1" stroke-opacity="0"></use></g></g><g><use xlink:href="#c5XKpymcXN" opacity="1" fill="#ffffff" fill-opacity="1"></use><g><use xlink:href="#c5XKpymcXN" opacity="1" fill-opacity="0" stroke="#000000" stroke-width="1" stroke-opacity="0"></use></g></g><g><use xlink:href="#h1vYqrwE8L" opacity="1" fill="#ffffff" fill-opacity="1"></use><g><use xlink:href="#h1vYqrwE8L" opacity="1" fill-opacity="0" stroke="#000000" stroke-width="1" stroke-opacity="0"></use></g></g><g><use xlink:href="#hiD8Ng2TF" opacity="1" fill="#ffffff" fill-opacity="1"></use><g><use xlink:href="#hiD8Ng2TF" opacity="1" fill-opacity="0" stroke="#000000" stroke-width="1" stroke-opacity="0"></use></g></g><g><use xlink:href="#e5ZIsH8WiM" opacity="1" fill="#ffffff" fill-opacity="1"></use><g><use xlink:href="#e5ZIsH8WiM" opacity="1" fill-opacity="0" stroke="#000000" stroke-width="1" stroke-opacity="0"></use></g></g><g><use xlink:href="#bVn8d9cFL" opacity="1" fill="#ffffff" fill-opacity="1"></use><g><use xlink:href="#bVn8d9cFL" opacity="1" fill-opacity="0" stroke="#000000" stroke-width="1" stroke-opacity="0"></use></g></g></g></g></svg>